PathFileType	4	(X/Y/Z)	C:\Users\°ÂÌØÂü\Desktop\20210112\bx_n_0_1801-Unnamed.trc
DataRate	CameraRate	NumFrames	NumMarkers	Units	OrigDataRate	OrigDataStartFrame	OrigNumFrames
50.00	50.00	       4	0	mm	50.00	298	       397
Frame#	Time	
		

298	5.940	-552.44061	-84.50992	1489.42334	-675.54626	214.78467	1040.52039	-734.76917	270.51324	859.96637	-632.85413	65.42615	574.35889	-531.52454	86.65316	1277.77844	-685.40649	261.94006	732.35828	-689.64142	242.59695	617.35028	-613.53644	205.32903	809.16541	-613.49805	4.68320	508.01956	-650.79028	237.11487	566.55237	-600.61383	194.43634	521.47925	-698.22150	248.63928	498.11295	-710.04413	72.33056	213.89156	-650.63568	-68.95469	161.14767	-706.49780	146.54060	210.15305	-760.21637	222.90977	207.35406	-608.64374	-75.76100	158.59738	-882.44165	296.28186	144.84575	-876.37939	77.10735	1049.85156	-596.61737	23.61974	167.37469	-551.63031	-33.33291	165.67525	-587.82959	210.77960	173.23123	-653.76544	291.69705	157.86591	-617.70850	298.23141	159.48721	-552.87378	248.05565	166.10143	-528.18390	304.18793	146.52794	-547.62000	99.06473	1790.95886	-568.71918	271.16617	1488.46704	-517.58087	-72.87317	143.48233	-788.56689	45.32811	178.02710	-791.35168	174.13701	187.26624	-627.32391	-27.38370	817.43475	-715.02039	-48.99755	484.85648	-753.31177	-15.29390	207.62880	-876.09662	-78.84725	141.46336	-671.46204	53.22084	156.68607	-614.14294	135.00372	571.44617	-673.40399	166.92632	154.79298	-729.21930	-92.45287	860.59357	-678.87317	-23.48395	1034.20679				-660.85406	-41.54233	559.38831	-702.95959	-77.46086	744.70349	-661.46857	-43.05476	606.95807	
299	5.960	-554.74896	-84.58638	1493.89319	-672.64642	214.49193	1043.32825	-733.37543	270.33701	861.50513	-634.66174	64.81300	573.93689	-531.31195	86.16293	1282.58582	-685.91406	261.58893	733.47577	-691.23590	242.98006	618.55157	-612.66937	205.16934	809.99036	-615.42511	4.55912	508.79178	-652.71484	237.09203	567.20447	-602.94116	194.47821	522.45264	-700.61835	248.54013	498.67441	-709.99792	72.26120	214.00212	-650.62390	-68.98285	161.08592	-706.43964	146.67589	210.37419	-760.26801	223.05879	207.48820	-608.68140	-75.87475	158.47238	-882.46729	296.20953	144.75272	-873.50024	77.05159	1052.06860	-596.73022	23.63099	167.67609	-551.50769	-33.08387	165.53975	-587.78815	210.78932	173.22745	-653.79999	291.57458	157.89139	-617.80139	298.49359	159.70511	-552.90503	248.06418	166.06990	-528.20160	303.99731	146.57602	-551.67871	98.32880	1795.38037	-571.11603	270.76501	1492.98572	-517.56555	-72.87814	143.46242	-788.59247	44.94225	178.51280	-791.44067	174.31026	187.34402	-625.50317	-27.34183	817.68610	-716.80933	-48.85334	484.55536	-753.50531	-15.47416	207.92719	-875.95374	-78.68990	141.32727	-671.24969	52.97486	156.82822	-616.49048	135.02745	571.73230	-673.17694	166.76277	155.01244	-726.97247	-91.80796	861.89691	-675.60522	-23.50607	1036.83459				-662.61688	-41.03737	559.96301	-702.81543	-76.53984	745.77478	-663.37415	-42.78749	607.11163	
300	5.980	-556.82196	-84.98782	1497.94836	-669.87128	215.07591	1046.23022	-731.33533	270.66452	863.74969	-637.06201	65.61141	574.71063	-531.16547	85.98130	1287.14563	-686.15558	261.50443	734.77472	-693.16364	242.98540	620.60742	-611.98248	205.09288	810.04950	-616.55243	5.08177	509.32919	-655.35931	236.72672	567.81879	-605.01495	194.22269	522.78485	-702.48218	248.30937	499.01932	-710.21143	72.03242	213.89461	-650.60846	-68.98545	161.18451	-707.15143	146.96545	210.74380	-760.30115	222.98508	207.37120	-608.38257	-75.87222	158.65956	-882.57764	296.19299	144.67506	-870.49316	76.43224	1053.51453	-596.68085	23.64445	167.55507	-551.54590	-33.17487	165.58165	-587.92365	210.89708	173.21104	-653.79303	291.71494	157.88000	-617.59125	298.28976	159.36404	-552.90503	248.06418	166.06990	-528.14520	304.10596	146.58832	-556.21942	98.44643	1800.10168	-573.39832	270.62579	1497.08630	-517.56555	-72.87814	143.46242	-788.67273	44.98188	178.58249	-791.66046	174.74054	187.46033	-624.03156	-27.43656	817.57623	-718.18140	-49.09208	484.98630	-753.57062	-15.43804	207.82243	-875.95648	-78.79716	141.44162	-671.28760	52.77174	156.88016	-618.94562	134.32378	572.18860	-673.38818	166.97153	154.83949	-724.75336	-92.45926	863.42816	-672.59467	-23.47974	1039.04846				-663.80701	-40.81744	560.31189	-702.04462	-76.09846	746.29889	-664.95081	-43.08261	608.00092	
301	6.000	-559.22675	-84.84209	1501.59094	-667.79565	214.73642	1048.37866	-730.44061	269.70734	865.01031	-638.66858	65.99775	574.88031	-530.94208	86.41564	1291.67224	-686.83942	261.04407	735.97925	-694.69580	243.42107	621.33972	-611.31964	205.47697	810.44342	-618.16241	5.68610	509.78699	-657.80731	236.57295	568.27692	-607.10034	194.09088	523.94122	-704.94122	248.22336	499.20981	-710.86700	71.93314	214.09404	-650.64606	-68.90749	160.98763	-707.07367	147.00583	210.79770	-760.38324	222.91023	207.39786	-608.67999	-75.95904	158.44136	-882.48743	296.05096	144.59955	-867.62671	76.41773	1055.20154	-596.87842	23.65266	167.30052	-551.55786	-33.12994	165.56810	-587.87885	210.85478	173.22426	-653.75885	291.65598	157.66884	-617.61609	298.36832	159.50626	-552.92920	248.08688	166.05742	-528.14801	304.30670	146.71324	-560.12799	97.64697	1803.90918	-575.68542	270.56549	1500.87805	-517.56555	-72.87814	143.46242	-788.76855	44.97437	178.48413	-791.49933	174.61832	187.16551	-622.53735	-27.48934	817.68292	-718.55609	-49.09618	485.62491	-753.69806	-15.42189	208.02374	-875.87335	-78.57735	141.34627	-671.37860	53.17581	157.15723	-620.91589	134.59639	573.01428	-673.40399	166.92632	154.79298	-722.53339	-91.97041	864.75751	-669.64093	-23.79042	1041.27014				-666.06238	-40.30899	561.00031	-701.35406	-76.02963	747.46802	-666.03058	-42.53354	608.56738	
